<svg width="81" height="44" viewBox="0 0 81 44" fill="none" xmlns="http://www.w3.org/2000/svg">
<g clip-path="url(#clip0_62_796)">
<mask id="mask0_62_796" style="mask-type:luminance" maskUnits="userSpaceOnUse" x="0" y="9" width="81" height="35">
<path d="M81 9.29565H0V43.9999H81V9.29565Z" fill="white"/>
</mask>
<g mask="url(#mask0_62_796)">
<path d="M6.59978 30.0903C6.68152 29.6382 6.60115 29.1714 6.3731 28.7736C6.00959 28.315 5.5329 27.9609 4.99091 27.7469C4.37364 27.4569 3.78653 27.1055 3.23827 26.698C2.64323 26.29 2.16601 25.7302 1.85521 25.0755C1.54442 24.4207 1.41117 23.6945 1.46905 22.971C1.52242 22.139 1.80169 21.3379 2.27626 20.6555C2.76137 19.9706 3.4176 19.4278 4.17817 19.0821C4.97082 18.6973 5.84205 18.5062 6.7214 18.5241C7.30373 18.51 7.88194 18.6262 8.41443 18.8645C8.94691 19.1028 9.42045 19.4572 9.80096 19.9022C10.565 20.8652 10.9332 22.0877 10.8293 23.3169H7.81615C7.89353 21.8662 7.43464 21.1223 6.43946 21.0851C6.19427 21.0795 5.95054 21.1247 5.72328 21.2178C5.49603 21.3108 5.29007 21.4499 5.11807 21.6263C4.74529 21.9857 4.50866 22.4653 4.44908 22.9821C4.34588 23.8079 4.91535 24.5146 6.15749 25.1023C7.19494 25.5371 8.11155 26.2209 8.8279 27.0942C9.44506 27.9529 9.7194 29.0145 9.5964 30.068C9.56699 30.6851 9.41185 31.2894 9.14075 31.8433C8.86965 32.3972 8.48839 32.8887 8.0207 33.2873C7.02172 34.1062 5.75621 34.5199 4.4712 34.4479C3.83626 34.4659 3.20507 34.3439 2.62164 34.0905C2.03821 33.837 1.51657 33.4583 1.09309 32.9805C0.671898 32.4807 0.354133 31.9008 0.158526 31.2751C-0.0370815 30.6493 -0.106572 29.9904 -0.0458481 29.3371H2.98394C2.87772 30.0115 3.00254 30.7023 3.33779 31.2955C3.50232 31.4996 3.71368 31.6601 3.95358 31.7632C4.19347 31.8663 4.45464 31.9087 4.71447 31.8869C4.9536 31.8966 5.19212 31.856 5.41485 31.7676C5.63758 31.6792 5.83965 31.5451 6.00822 31.3736C6.33148 31.0174 6.53803 30.5693 6.59978 30.0903Z" fill="#212529"/>
<path d="M16.7286 33.1813C16.4382 33.5756 16.0605 33.896 15.6257 34.1169C15.1908 34.3378 14.7108 34.453 14.224 34.4534C13.8888 34.4654 13.555 34.4037 13.2457 34.2727C12.9364 34.1417 12.659 33.9444 12.4327 33.6946C11.9534 33.1213 11.6789 32.4021 11.6531 31.6525C11.606 31.1608 11.606 30.6657 11.6531 30.174L12.886 22.7366H15.7887L14.5613 30.213L14.5281 30.7375C14.4912 31.0398 14.5493 31.3462 14.694 31.6135C14.7529 31.7177 14.8382 31.804 14.9412 31.8638C15.0442 31.9237 15.1612 31.9548 15.28 31.9538C15.5963 31.946 15.9058 31.8599 16.1815 31.7033C16.4571 31.5467 16.6905 31.3243 16.8612 31.0555L18.2932 22.7366H21.229L19.2497 34.2302H16.5461L16.7286 33.1813Z" fill="#212529"/>
<path d="M26.7413 34.4423C26.3259 34.4412 25.9173 34.3348 25.5532 34.1331C25.189 33.9313 24.8808 33.6405 24.657 33.2874L23.6507 38.6492H20.7426L23.4793 22.7366H26.1332L25.9728 23.8023C26.2377 23.4134 26.5904 23.0937 27.0018 22.8696C27.4133 22.6455 27.8717 22.5234 28.3392 22.5135C28.7714 22.4943 29.2014 22.5867 29.5883 22.7819C29.9753 22.9772 30.3065 23.2688 30.5507 23.6293C31.0895 24.6141 31.3207 25.7402 31.2142 26.8599C31.1896 28.2845 30.9757 29.6994 30.5783 31.0668C30.3169 32.0489 29.7861 32.9366 29.0469 33.6277C28.4122 34.1909 27.5854 34.483 26.7413 34.4423ZM28.3392 26.8599C28.3764 26.3852 28.2926 25.9088 28.0959 25.4762C28.0076 25.3426 27.8873 25.2338 27.7462 25.1597C27.6051 25.0856 27.4477 25.0486 27.2887 25.0521C27.008 25.0591 26.733 25.1331 26.486 25.2679C26.2391 25.4027 26.0272 25.5945 25.8678 25.8277L24.9223 31.2565C25.0333 31.4804 25.2062 31.667 25.4201 31.7938C25.6341 31.9205 25.8798 31.982 26.1276 31.9706C27.2334 32.0264 27.8747 31.1783 28.1291 29.4264L28.3392 27.256V26.8599Z" fill="#212529"/>
<path d="M36.6987 34.4423C35.8685 34.4619 35.0524 34.2243 34.36 33.7616C33.7093 33.3027 33.2211 32.6458 32.9667 31.8869C32.675 31.0036 32.588 30.0645 32.7124 29.1418L32.8064 28.3552C33.0386 26.4526 33.6081 25.0074 34.5259 23.9809C34.9644 23.4897 35.5063 23.1039 36.112 22.8519C36.7176 22.5999 37.3715 22.488 38.0256 22.5246C38.4833 22.5069 38.9396 22.585 39.3659 22.754C39.7922 22.9229 40.1792 23.1792 40.5025 23.5066C41.1381 24.2359 41.5052 25.164 41.542 26.1345C41.5967 26.7926 41.5818 27.4547 41.4977 28.1096L41.2987 29.4933H35.5874C35.5491 29.7855 35.538 30.0806 35.5543 30.3749C35.604 31.3959 36.1071 31.9148 37.036 31.9371C37.9821 31.9408 38.8938 31.5795 39.5848 30.9273L40.5634 32.7573C40.1453 33.3118 39.5879 33.7433 38.949 34.0071C38.2397 34.3173 37.4713 34.4659 36.6987 34.4423ZM37.7381 24.9963C36.9014 24.9628 36.3191 25.5022 35.991 26.6144L35.7809 27.3899H38.6725C38.7349 27.0602 38.7738 26.7265 38.7886 26.3911C38.8439 25.504 38.4734 25.0354 37.7381 24.9963Z" fill="#212529"/>
<path d="M48.9893 25.6267L48.066 25.5207C47.6805 25.5142 47.3008 25.6149 46.9682 25.8117C46.6357 26.0086 46.3632 26.2939 46.1807 26.6366L44.8648 34.2302H41.9456L43.9249 22.7365H46.6506L46.4184 23.9975C46.6765 23.5471 47.0204 23.1527 47.4302 22.837C47.7442 22.6191 48.1162 22.5024 48.4972 22.5022C48.8018 22.5143 49.1032 22.5688 49.3929 22.664L48.9893 25.6267Z" fill="#212529"/>
<path d="M60.8431 34.2303H57.8299L58.9688 27.613H54.5458L53.4068 34.2303H50.3992L53.053 18.7808H56.0717L54.9991 25.0353H59.4222L60.528 18.7808H63.5414L60.8431 34.2303Z" fill="#FF8E14"/>
<path d="M66.2611 34.2303H63.2423L65.9016 18.7808H68.926L66.2611 34.2303Z" fill="#FF8E14"/>
<path d="M80.4978 21.3639H76.821L74.6097 34.2302H71.5747L73.786 21.3639H70.1647L70.6176 18.7639H80.9458L80.4978 21.3639Z" fill="#FF8E14"/>
</g>
<path d="M48.6093 3.52869L40.1834 1.28316C37.5243 0.57449 34.791 2.14403 34.0785 4.78882L31.8208 13.1692C31.1083 15.814 32.6864 18.5325 35.3455 19.2412L43.7713 21.4867C46.4305 22.1954 49.1637 20.6259 49.8762 17.9811L52.1339 9.60066C52.8464 6.95587 51.2684 4.23736 48.6093 3.52869Z" fill="#F0386B"/>
<path d="M38.8132 8.31494L39.3245 8.45122L39.7548 13.1209L39.1083 12.9485L38.8476 9.20442L36.7397 12.3173L36.0931 12.145L38.8132 8.31494ZM37.223 10.839L39.4711 11.4381L39.3183 12.0052L37.0702 11.406L37.223 10.839ZM41.3067 11.1598L42.6732 11.524C42.8026 11.5585 42.9243 11.5585 43.0385 11.5243C43.1528 11.4899 43.2513 11.4243 43.3341 11.3273C43.4189 11.2309 43.4807 11.1106 43.5195 10.9664C43.5589 10.8202 43.5661 10.6843 43.5412 10.5586C43.5182 10.4334 43.4659 10.3276 43.3842 10.2411C43.3031 10.1527 43.1978 10.0912 43.0685 10.0567L41.702 9.69257L41.8548 9.12553L43.2007 9.48423C43.4554 9.55208 43.665 9.66642 43.8296 9.82724C43.9946 9.98614 44.1036 10.1781 44.1564 10.403C44.2111 10.6285 44.2035 10.8709 44.1338 11.1301C44.0639 11.3892 43.9486 11.6029 43.7878 11.7709C43.6296 11.9376 43.439 12.0487 43.2162 12.1041C42.9933 12.1596 42.7546 12.1534 42.4999 12.0856L41.154 11.7269L41.3067 11.1598ZM41.5462 9.0433L42.1457 9.20306L41.0008 13.4529L40.4013 13.2931L41.5462 9.0433ZM45.0565 12.1592L46.423 12.5233C46.5523 12.5578 46.6741 12.5579 46.7883 12.5236C46.9025 12.4893 47.0011 12.4237 47.0839 12.3267C47.1686 12.2303 47.2305 12.1099 47.2693 11.9657C47.3087 11.8196 47.3159 11.6837 47.291 11.558C47.268 11.4328 47.2157 11.327 47.134 11.2404C47.0528 11.152 46.9476 11.0905 46.8183 11.0561L45.4518 10.6919L45.6046 10.1248L46.9505 10.4836C47.2052 10.5514 47.4148 10.6658 47.5794 10.8266C47.7444 10.9854 47.8533 11.1774 47.9061 11.4024C47.9609 11.6279 47.9533 11.8703 47.8835 12.1294C47.8137 12.3885 47.6984 12.6022 47.5376 12.7703C47.3794 12.9369 47.1888 13.048 46.966 13.1035C46.7431 13.159 46.5044 13.1528 46.2497 13.0849L44.9038 12.7262L45.0565 12.1592ZM45.296 10.0427L45.8955 10.2024L44.7506 14.4523L44.1511 14.2924L45.296 10.0427Z" fill="white"/>
</g>
<defs>
<clipPath id="clip0_62_796">
<rect width="81" height="44" fill="white"/>
</clipPath>
</defs>
</svg>
