<svg width="79" height="79" viewBox="0 0 79 79" fill="none" xmlns="http://www.w3.org/2000/svg">
<path d="M39.5 54.1874C40.0749 54.1874 40.5566 53.9932 40.945 53.6048C41.3313 53.2164 41.5244 52.7347 41.5244 52.1597C41.5244 51.587 41.3302 51.1064 40.9417 50.718C40.5533 50.3296 40.0728 50.1343 39.5 50.1321C38.9272 50.1299 38.4467 50.3241 38.0583 50.7147C37.6698 51.1053 37.4756 51.5859 37.4756 52.1565C37.4756 52.727 37.6698 53.2087 38.0583 53.6015C38.4467 53.9943 38.9272 54.1918 39.5 54.1874ZM37.8542 43.2953H41.1458V23.5453H37.8542V43.2953ZM39.5099 69.125C35.415 69.125 31.5638 68.3482 27.9561 66.7945C24.3507 65.2386 21.2137 63.1276 18.5452 60.4613C15.8768 57.7951 13.7647 54.6614 12.2088 51.0603C10.6529 47.4592 9.875 43.6091 9.875 39.5099C9.875 35.4107 10.6529 31.5594 12.2088 27.9561C13.7625 24.3507 15.8702 21.2137 18.5321 18.5452C21.1939 15.8768 24.3287 13.7647 27.9364 12.2088C31.544 10.6529 35.3953 9.875 39.4901 9.875C43.585 9.875 47.4362 10.6529 51.0439 12.2088C54.6493 13.7625 57.7863 15.8713 60.4548 18.5354C63.1232 21.1994 65.2354 24.3342 66.7912 27.9397C68.3471 31.5451 69.125 35.3953 69.125 39.4901C69.125 43.585 68.3482 47.4362 66.7945 51.0439C65.2408 54.6515 63.1298 57.7885 60.4613 60.4547C57.7929 63.121 54.6592 65.2332 51.0603 66.7912C47.4614 68.3493 43.6113 69.1272 39.5099 69.125ZM39.5 65.8333C46.8514 65.8333 53.0781 63.2823 58.1802 58.1802C63.2823 53.0781 65.8333 46.8514 65.8333 39.5C65.8333 32.1486 63.2823 25.9219 58.1802 20.8198C53.0781 15.7177 46.8514 13.1667 39.5 13.1667C32.1486 13.1667 25.9219 15.7177 20.8198 20.8198C15.7177 25.9219 13.1667 32.1486 13.1667 39.5C13.1667 46.8514 15.7177 53.0781 20.8198 58.1802C25.9219 63.2823 32.1486 65.8333 39.5 65.8333Z" fill="#F40404"/>
</svg>
